<svg id="Flat_1_" enable-background="new 0 0 512 512" height="512" viewBox="0 0 512 512" width="512" xmlns="http://www.w3.org/2000/svg"><g><path d="m402 336h-292c-16.5686 0-30 13.4314-30 30v58h48v54c0 5.5229 4.4772 10 10 10h236c5.5228 0 10-4.4771 10-10v-54h48v-58c0-16.5686-13.4314-30-30-30z" fill="#63c521"/><g><path d="m384 384h48v40h-48z" fill="#fdc069" transform="matrix(-1 0 0 -1 816 808)"/></g><g><path d="m248 424h-120v54c0 5.5229 4.4772 10 10 10h46.0001c35.3462 0 63.9999-28.6537 63.9999-64z" fill="#9fdc6e"/></g><g><path d="m264 424h120v54c0 5.5229-4.4771 10-10 10h-46.0001c-35.3462 0-63.9999-28.6537-63.9999-64z" fill="#9fdc6e"/></g><g><g><g><ellipse cx="347.314" cy="52.686" fill="#f15a57" rx="36.672" ry="24" transform="matrix(.707 -.707 .707 .707 64.471 261.019)"/></g></g></g><path d="m465 200c-19.5517 0-35.9062 13.6859-40.0082 32h-.9918v-42c0-16.5686-13.4314-30-30-30h-276c-16.5686 0-30 13.4314-30 30v42h-.9918c-4.102-18.3141-20.4565-32-40.0082-32h-7v40c0 22.0913 17.9087 40 40 40h8.1315c2.0584 31.2722 28.0755 56 59.8685 56h216c31.793 0 57.8101-24.7278 59.8685-56h8.1315c22.0913 0 40-17.9087 40-40v-40z" fill="#ffd4cf"/><g><path d="m256 160h136c0-104-136-136-136-136s-136 32-136 136z" fill="#63c521"/></g><g><path d="m88 190v33.8684c1.3223.0872 2.6558.1316 4 .1316 33.1372 0 60-26.8628 60-60 0-1.3442-.0444-2.6777-.1316-4h-33.8684c-16.5686 0-30 13.4314-30 30z" fill="#f15a57"/></g><g><path d="m424 190v33.8684c-1.3223.0872-2.6558.1316-4 .1316-33.1372 0-60-26.8628-60-60 0-1.3442.0444-2.6777.1316-4h33.8684c16.5686 0 30 13.4314 30 30z" fill="#f15a57"/></g><g><path d="m411.6221 168h-309.7442l-13.8779-56 64 16 11.0623-24 44.2492 16 49.4385-40 47.9385 40 44.2492-16 11.0623 24 64-16z" fill="#9fdc6e"/></g><g><path d="m278 448h-44c-5.5228 0-10-4.4771-10-10v-20c0-5.5229 4.4772-10 10-10h44c5.5229 0 10 4.4771 10 10v20c0 5.5229-4.4771 10-10 10z" fill="#fdc069"/></g><g><path d="m312 384c26.5098 0 48-21.4902 48-48h-96c0 26.5098 21.4902 48 48 48z" fill="#fefbfb"/></g><g><path d="m208 384c26.5098 0 48-21.4902 48-48h-96c0 26.5098 21.4902 48 48 48z" fill="#fefbfb"/></g><g><path d="m80 384h48v40h-48z" fill="#fdc069"/></g><g fill="#ae7069"><path d="m184 208c-22.0562 0-40 17.9443-40 40h16c0-13.2334 10.7661-24 24-24s24 10.7666 24 24h16c0-22.0557-17.9438-40-40-40z"/><path d="m328 208c-22.0562 0-40 17.9443-40 40h16c0-13.2334 10.7661-24 24-24s24 10.7666 24 24h16c0-22.0557-17.9438-40-40-40z"/><path d="m256 296c-8.8223 0-16-7.1777-16-16h-16c0 17.6445 14.355 32 32 32s32-14.3555 32-32h-16c0 8.8223-7.1777 16-16 16z"/></g><g><path d="m384 416h46c5.5229 0 10 4.4771 10 10v6c0 22.0914-17.9086 40-40 40h-16z" fill="#f7f7f7"/></g><g><path d="m128 416h-46c-5.5229 0-10 4.4771-10 10v6c0 22.0914 17.9086 40 40 40h16z" fill="#f7f7f7"/></g></g></svg>