<svg height="466pt" viewBox="0 0 466.88 466" width="466pt" xmlns="http://www.w3.org/2000/svg"><path d="m466.878906 262.921875c-.011718 6.375-2.574218 12.484375-7.117187 16.960937l-103.121094 103.199219c-6.007813 6-14.152344 9.367188-22.640625 9.359375h-204.71875l-35.121094-60.878906 35.121094-35.121094h168c13.253906 0 24 10.746094 24 24 .015625 2.730469-.472656 5.445313-1.441406 8-1.136719 3.386719-3.054688 6.457032-5.601563 8.960938-4.492187 4.507812-10.59375 7.039062-16.957031 7.039062h23.359375c4.261719-.003906 8.351563-1.699218 11.359375-4.71875l93.839844-93.761718c6.882812-6.832032 17.195312-8.863282 26.15625-5.160157 8.964844 3.703125 14.832031 12.421875 14.882812 22.121094zm0 0" fill="#ffdaaa"/><path d="m0 328.519531 80 138.5625 69.28125-40-80-138.5625zm0 0" fill="#3d9ae2"/><path d="m153.28125 192.441406c-17.675781 0-32 14.328125-32 32s14.324219 32 32 32h176v-64zm0 0" fill="#787680"/><path d="m329.28125 192.441406v16h-176c-14.59375-.011718-27.335938 9.867188-30.960938 24-.714843-2.605468-1.066406-5.296875-1.039062-8 0-17.671875 14.324219-32 32-32zm0 0" fill="#57565c"/><path d="m153.28125.441406h176v192h-176zm0 0" fill="#c49a6c"/><path d="m329.28125 43.402344v149.039062h-149.203125c59.144531-39.269531 109.867187-89.9375 149.203125-149.039062zm0 0" fill="#a97c50"/><path d="m153.28125.441406v192c-17.675781 0-32 14.328125-32 32v-192c-.011719-14.589844 9.867188-27.335937 24-30.960937 2.605469-.714844 5.296875-1.0625 8-1.039063zm0 0" fill="#8b5e3c"/><path d="m193.28125 48.441406h96v48h-96zm0 0" fill="#bcbec0"/><path d="m153.28125 216.441406h176v16h-176zm0 0" fill="#3e3d42"/><path d="m161.28125.441406v192h-16v-190.960937c2.605469-.714844 5.296875-1.0625 8-1.039063zm0 0" fill="#754c29"/><path d="m319.839844 328.441406c-1.136719 3.386719-3.054688 6.457032-5.601563 8.960938-4.492187 4.507812-10.59375 7.039062-16.957031 7.039062h-88v-16zm0 0" fill="#ffc477"/></svg>