<?xml version="1.0" standalone="no"?>
<!DOCTYPE svg PUBLIC "-//W3C//DTD SVG 20010904//EN"
 "http://www.w3.org/TR/2001/REC-SVG-20010904/DTD/svg10.dtd">
<svg version="1.0" xmlns="http://www.w3.org/2000/svg"
 width="988.000000pt" height="988.000000pt" viewBox="0 0 988.000000 988.000000"
 preserveAspectRatio="xMidYMid meet">
<metadata>
Created by potrace 1.11, written by Peter Selinger 2001-2013
</metadata>
<g transform="translate(0.000000,988.000000) scale(0.100000,-0.100000)"
fill="#000000" stroke="none">
<path d="M7155 8304 c-217 -46 -367 -152 -450 -319 -22 -44 -40 -81 -41 -83 0
-1 -43 18 -95 42 -335 158 -778 223 -1319 196 -740 -37 -1227 -159 -1582 -397
-38 -25 -70 -44 -71 -42 -2 2 -18 27 -35 55 -48 76 -148 167 -227 206 -109 54
-153 63 -315 63 -214 0 -253 -19 -251 -122 1 -73 42 -218 84 -298 73 -137 230
-252 380 -278 54 -9 66 -14 61 -27 -22 -55 -65 -259 -78 -371 -32 -275 -16
-556 50 -857 l25 -113 -69 -74 c-76 -80 -130 -175 -159 -285 -14 -50 -18 -101
-17 -220 0 -139 3 -164 28 -245 59 -195 168 -344 297 -405 69 -32 94 -38 86
-17 -58 132 -68 167 -44 166 6 0 68 -31 137 -68 87 -48 126 -65 128 -55 2 7
-4 61 -12 119 -9 58 -16 110 -16 115 0 27 39 2 124 -78 138 -130 226 -206 232
-200 2 3 -4 29 -16 57 -11 28 -20 57 -19 64 0 7 27 32 60 55 72 53 120 120
126 177 5 36 1 47 -26 78 -35 39 -61 50 -166 67 -38 6 -90 19 -114 28 l-43 17
-64 165 c-107 277 -120 318 -107 331 9 9 19 9 41 0 28 -12 34 -10 104 42 l75
55 31 -24 c46 -37 164 -89 267 -118 175 -50 318 -147 395 -266 l33 -51 52 54
c107 109 234 173 457 231 75 20 166 47 203 61 80 30 230 105 302 151 29 19 57
34 61 34 4 0 40 -22 81 -50 73 -49 74 -49 137 -43 64 6 64 6 99 -31 19 -20 41
-58 49 -84 7 -26 30 -89 50 -141 20 -51 36 -94 36 -96 0 -6 -205 -83 -316
-118 -132 -42 -165 -58 -193 -93 -53 -67 -35 -142 55 -231 51 -50 89 -75 186
-123 153 -74 307 -126 443 -148 l104 -17 32 -85 c18 -47 36 -89 40 -94 4 -5
12 9 17 30 56 218 144 547 152 568 12 32 35 43 55 26 9 -7 36 -52 62 -99 25
-47 55 -101 66 -119 l20 -34 50 94 c96 180 115 198 142 135 8 -19 19 -74 26
-123 16 -128 13 -124 70 -68 272 264 316 683 113 1074 -41 80 -43 86 -26 101
30 28 457 385 468 392 6 3 49 -38 100 -98 48 -58 91 -105 94 -105 3 0 31 21
62 47 50 40 56 49 45 62 -8 9 -53 62 -100 117 -48 56 -87 106 -87 110 1 5 124
106 275 224 151 118 275 218 275 222 0 9 -141 392 -146 398 -3 2 -142 -133
-310 -300 -299 -299 -305 -305 -322 -285 -85 103 -176 205 -182 205 -4 0 -33
-21 -64 -46 l-56 -46 94 -111 94 -110 -95 -81 c-133 -113 -133 -112 -133 -84
0 51 -22 258 -36 343 -23 141 -70 308 -119 429 -25 61 -46 115 -48 119 -1 5
24 17 55 27 229 72 372 278 385 557 l6 112 -31 30 -30 31 -114 -1 c-62 -1
-122 -3 -133 -5z m-1056 -874 c208 -72 348 -238 373 -442 17 -136 0 -256 -48
-349 -68 -130 -180 -228 -313 -276 -73 -27 -87 -25 -38 6 50 31 115 105 140
159 31 67 31 207 1 273 -103 222 -396 277 -566 107 -134 -133 -136 -335 -7
-482 23 -25 38 -46 34 -46 -4 0 -38 20 -76 45 -113 76 -189 177 -230 305 -28
90 -28 240 0 330 54 172 186 309 356 368 82 29 87 30 195 31 81 1 108 -4 179
-29z m-1849 -105 c192 -51 338 -194 406 -395 28 -85 24 -244 -8 -332 -36 -97
-85 -172 -149 -232 -59 -55 -167 -117 -234 -134 -39 -11 -40 -11 -16 6 66 48
123 110 148 161 23 48 27 69 28 146 0 79 -4 97 -28 146 -33 67 -108 141 -174
171 -37 17 -69 22 -138 22 -79 1 -98 -3 -150 -27 -212 -99 -265 -367 -108
-546 l48 -55 -55 29 c-82 44 -180 148 -224 236 -40 81 -43 98 -52 245 -6 86
-4 112 14 170 58 188 221 345 404 390 72 17 221 17 288 -1z m1167 -947 c34
-112 57 -204 52 -206 -5 -2 -74 12 -154 32 -80 20 -149 36 -154 36 -5 0 -26
-29 -47 -65 -22 -35 -43 -65 -49 -65 -5 1 -19 13 -30 28 -11 15 -87 109 -169
210 -81 101 -145 187 -140 192 5 4 106 13 224 20 118 7 217 14 219 16 2 2 46
4 96 4 l91 0 61 -202z"/>
<path d="M5252 6423 c-34 -58 -60 -108 -58 -110 6 -6 168 -45 171 -41 5 6 -39
258 -45 258 -3 0 -33 -48 -68 -107z"/>
<path d="M2807 4604 l6 -147 -48 36 c-26 21 -50 35 -53 32 -2 -2 19 -32 48
-65 l53 -62 5 -81 5 -81 -31 25 c-16 13 -57 48 -91 77 -34 30 -61 51 -61 47 0
-4 40 -58 90 -120 l90 -114 6 -85 c4 -48 4 -86 0 -86 -3 0 -51 46 -105 103
-55 56 -102 99 -106 95 -4 -4 42 -67 102 -140 l110 -133 7 -125 c13 -236 15
-250 45 -256 78 -16 71 -21 65 48 -9 112 -25 262 -30 294 -5 26 4 42 75 129
44 54 79 101 76 103 -2 2 -38 -24 -80 -58 -42 -34 -78 -61 -80 -59 -2 2 -7 39
-12 83 l-10 79 68 86 c37 47 66 87 64 89 -2 3 -34 -17 -71 -42 -36 -26 -68
-45 -70 -44 -2 2 -6 40 -10 83 l-6 80 42 53 c23 29 40 55 38 57 -2 3 -21 -7
-42 -21 -21 -14 -41 -22 -46 -18 -4 5 -13 69 -20 142 -7 73 -17 135 -21 138
-4 2 -5 -62 -2 -142z"/>
<path d="M7951 4716 c-1 -26 -3 -27 -18 -15 -17 13 -17 13 0 -13 9 -15 17 -39
17 -54 l0 -27 -26 24 -27 24 27 -46 c41 -72 32 -120 -13 -63 -12 15 -21 24
-21 20 0 -4 11 -22 25 -40 22 -30 25 -42 25 -124 0 -92 5 -107 29 -92 11 6 13
27 8 92 -5 80 -5 84 21 111 14 15 21 27 14 27 -6 0 -14 -4 -17 -10 -12 -20
-25 -9 -25 22 0 19 9 42 23 56 l22 25 -22 -12 c-12 -6 -24 -11 -27 -11 -10 0
-6 59 4 65 6 3 10 11 10 16 0 6 -4 8 -9 4 -5 -3 -12 7 -14 22 l-4 28 -2 -29z"/>
<path d="M8602 4572 c-2 -29 -5 -32 -23 -27 l-21 7 21 -29 c16 -22 20 -36 15
-61 l-7 -33 -30 28 -30 28 31 -47 c24 -35 32 -58 32 -90 l-1 -43 -40 45 c-31
34 -36 37 -23 14 37 -59 51 -74 81 -80 25 -5 33 -1 58 32 l30 39 -32 -23 c-17
-12 -34 -22 -37 -22 -3 0 -6 16 -6 37 0 24 9 48 26 71 25 33 26 34 4 22 -18
-10 -24 -9 -31 1 -13 21 -11 47 7 75 15 21 15 24 1 18 -12 -4 -17 3 -20 33 -4
37 -4 37 -5 5z"/>
<path d="M7040 4431 c-52 -10 -108 -23 -124 -30 -16 -6 -74 -16 -130 -22 -55
-5 -139 -17 -186 -25 -72 -12 -90 -19 -120 -48 -19 -18 -44 -39 -55 -45 -25
-15 -62 -20 377 55 l348 59 0 38 c0 20 -3 37 -7 36 -5 0 -51 -9 -103 -18z"/>
<path d="M3626 4261 c-18 -98 -21 -232 -6 -312 5 -30 12 -70 14 -89 2 -19 9
-38 17 -42 19 -10 522 -148 545 -149 11 0 14 -3 7 -5 -7 -3 -58 4 -115 16 -57
12 -112 23 -123 25 -11 1 -33 5 -50 9 -16 3 -41 8 -55 11 -14 3 -47 9 -75 15
-228 47 -344 69 -367 69 -12 1 -18 -6 -18 -19 0 -11 2 -20 4 -20 14 0 711
-133 1365 -261 58 -11 143 -31 189 -45 46 -13 103 -24 126 -24 22 0 136 -18
251 -41 116 -22 237 -45 270 -51 33 -6 64 -14 69 -19 16 -15 35 -142 36 -238
0 -115 -19 -271 -33 -271 -6 0 -137 27 -291 61 -234 50 -947 204 -1696 365
-90 20 -168 38 -171 40 -4 2 -30 -1 -58 -8 -104 -24 -58 -45 229 -106 129 -28
422 -91 650 -141 228 -49 573 -124 765 -165 193 -42 360 -78 373 -81 14 -3 20
-10 16 -17 -4 -6 -3 -8 3 -5 6 4 58 -3 114 -14 l104 -21 500 197 c275 108 505
202 511 208 7 7 22 59 34 116 33 156 85 306 155 446 34 69 61 125 59 125 -2 0
-133 -47 -291 -104 -159 -57 -331 -119 -383 -136 -95 -32 -225 -78 -462 -165
l-126 -46 -233 46 c-128 24 -234 46 -235 48 -2 2 63 17 144 35 81 17 350 74
597 127 907 193 1010 216 1015 223 3 4 23 28 44 55 36 45 35 58 -2 37 -9 -6
-273 -62 -587 -124 -313 -63 -738 -149 -944 -190 -206 -42 -378 -76 -382 -76
-5 0 -9 8 -9 18 0 14 -13 22 -55 32 -62 15 -119 58 -164 123 -18 26 -78 77
-157 134 -71 51 -174 125 -229 164 -179 128 -284 209 -294 227 -6 10 -11 12
-11 4 0 -8 -9 -11 -22 -8 -34 7 -383 74 -453 87 -33 6 -68 12 -77 14 -13 2
-19 -13 -32 -84z"/>
<path d="M1984 4143 c2 -51 1 -93 -1 -93 -3 0 -18 9 -34 21 -39 27 -37 16 6
-34 30 -34 35 -48 35 -90 l0 -49 -55 47 c-30 26 -55 44 -55 40 0 -4 24 -38 54
-74 46 -57 54 -74 60 -124 4 -31 4 -57 -1 -57 -5 0 -31 25 -57 55 -26 30 -57
60 -69 67 -26 13 -28 17 69 -102 l61 -75 7 -159 c4 -88 9 -163 12 -168 3 -4
18 -1 34 7 l30 15 -6 78 c-3 42 -9 110 -13 150 l-7 74 53 65 c73 89 70 92 -15
21 -18 -16 -37 -26 -43 -23 -5 4 -9 29 -9 57 0 44 5 56 41 100 23 27 40 51 37
53 -2 3 -23 -9 -45 -25 l-41 -30 -6 22 c-13 49 -6 90 19 120 30 36 27 46 -8
23 l-25 -16 -7 68 c-12 117 -25 140 -21 36z"/>
<path d="M3546 3120 c21 -21 8 -19 819 -175 154 -30 363 -70 465 -90 333 -65
595 -115 601 -115 12 0 31 -95 36 -186 6 -89 6 -91 29 -86 22 4 24 9 24 68 0
56 -19 174 -35 215 -6 16 -28 20 -450 100 -245 46 -321 61 -485 93 -96 19
-249 48 -340 66 -91 17 -194 37 -230 45 -36 8 -117 23 -180 35 -63 11 -134 25
-157 30 -22 5 -58 12 -80 16 l-38 6 21 -22z"/>
<path d="M6228 2673 c6 -2 18 -2 25 0 6 3 1 5 -13 5 -14 0 -19 -2 -12 -5z"/>
<path d="M6288 2673 c6 -2 18 -2 25 0 6 3 1 5 -13 5 -14 0 -19 -2 -12 -5z"/>
<path d="M3719 2552 l19 -38 618 -133 c339 -73 632 -140 651 -147 32 -14 34
-13 70 20 43 39 54 33 -122 70 -66 14 -371 79 -679 146 -307 66 -562 120 -567
120 -5 0 -1 -17 10 -38z"/>
<path d="M5648 2473 c7 -3 16 -2 19 1 4 3 -2 6 -13 5 -11 0 -14 -3 -6 -6z"/>
<path d="M5002 2190 c0 -14 2 -19 5 -12 2 6 2 18 0 25 -3 6 -5 1 -5 -13z"/>
</g>
</svg>
