<svg height="512" width="512" xmlns="http://www.w3.org/2000/svg"><path d="M256 130.741L58.009 256.736V504.5h395.983V256.735L256 130.741z" fill="#f4ddb1"/><path d="M336.813 504.5V399.443c0-44.632-36.181-80.813-80.813-80.813s-80.813 36.181-80.813 80.813V504.5z" fill="#738b95"/><path d="M425.707 238.736V504.5h28.284V256.735l-28.284-17.999z" fill="#efcb84"/><path d="M256 130.741l222.235 141.422v-61.62L256 70.131 33.765 210.543v61.62z" fill="#c6865c"/><path d="M453.991 195.226v29.255c0 4.783-5.28 7.681-9.315 5.113L256 109.527 33.765 250.95v21.213L256 130.741l222.235 141.422v-61.62l-24.244-15.317z" fill="#b16e3d"/><path d="M341.204 25.286C317.711 1.794 279.774 1.58 256 24.615c-23.774-23.035-61.711-22.821-85.204.671-23.724 23.724-23.724 62.187 0 85.911L256 196.401l85.204-85.204c23.723-23.723 23.723-62.187 0-85.911z" fill="#dd636e"/><path d="M341.204 25.286c-11.314-11.315-25.98-17.213-40.799-17.731a103.704 103.704 0 012.571 22.885c0 57.141-46.322 103.462-103.462 103.462-2.088 0-4.157-.08-6.215-.203L256 196.401l85.204-85.204c23.723-23.723 23.723-62.187 0-85.911z" fill="#da4a54"/><ellipse cx="256" cy="439.85" fill="#f6e781" rx="33.335" ry="26.264"/><ellipse cx="256" cy="388.077" fill="#f6e781" rx="17.173" ry="24.244"/><ellipse cx="288.325" cy="401.209" fill="#f6e781" rx="20.203" ry="16.163" transform="rotate(-63.05 288.493 401.408)"/><ellipse cx="223.675" cy="401.209" fill="#f6e781" rx="16.163" ry="20.203" transform="rotate(-26.95 223.719 401.33)"/><path d="M482.245 204.2l-54.26-34.28a7.5 7.5 0 10-8.012 12.682l50.766 32.072v43.824L308.045 154.964l26.399-26.399 55.747 35.22a7.495 7.495 0 0010.347-2.335 7.501 7.501 0 00-2.335-10.347l-52.885-33.412 1.19-1.19c26.609-26.61 26.609-69.908 0-96.517C333.753 7.229 316.797.132 298.762.004c-.168-.002-.335-.002-.503-.002-15.496 0-30.252 5.152-42.259 14.653C243.863 5.05 228.933-.148 213.238.003c-18.035.129-34.991 7.225-47.745 19.979-26.61 26.61-26.61 69.908 0 96.518l1.19 1.19-52.886 33.413a7.5 7.5 0 004.014 13.842 7.473 7.473 0 003.999-1.16l55.747-35.221 26.399 26.399L41.261 258.498v-43.824l50.765-32.072a7.5 7.5 0 002.334-10.347c-2.211-3.502-6.843-4.545-10.346-2.335L29.755 204.2a7.5 7.5 0 00-3.494 6.341v61.62a7.499 7.499 0 0011.526 6.327l12.721-8.095V504.5a7.5 7.5 0 007.5 7.5h395.983c4.143 0 7.5-3.357 7.5-7.5v-75.786c0-4.143-3.357-7.5-7.5-7.5s-7.5 3.357-7.5 7.5v2.626H344.313v-31.896c0-4.664-.366-9.243-1.066-13.714h103.245v7.979c0 4.143 3.357 7.5 7.5 7.5s7.5-3.357 7.5-7.5V270.392l12.722 8.096a7.494 7.494 0 007.635.247 7.5 7.5 0 003.891-6.574v-61.62a7.504 7.504 0 00-3.495-6.341zM329.313 497H182.687v-97.556c0-40.425 32.888-73.313 73.313-73.313s73.313 32.889 73.313 73.313zm-174.32-293.099h202.015l71.67 45.609H83.322zM65.509 385.73h103.245c-.7 4.47-1.066 9.05-1.066 13.714v31.896H65.509zm106.974-15H65.509v-45.609h142.838c-16.559 10.653-29.34 26.686-35.864 45.609zM65.509 310.121v-45.61h380.983v45.61zm267.928-121.22h-59.33l23.073-23.073zM176.099 30.59c10.323-10.323 23.98-15.497 37.647-15.497 13.38 0 26.77 4.962 37.035 14.908a7.5 7.5 0 0010.437 0c20.752-20.106 54.254-19.84 74.681.588v.001c20.762 20.761 20.762 54.543 0 75.304L256 185.795l-79.901-79.901c-20.761-20.761-20.761-54.543 0-75.304zm61.794 158.311h-59.329l36.257-23.073zM65.509 446.34h102.178V497H65.509zm380.982 0V497H344.313v-50.66zm-106.974-75.61c-6.524-18.923-19.306-34.956-35.864-45.609h142.838v45.609z"/><path d="M300.878 376.514c-5.835-2.966-12.894-2.983-19.365-.049-.741.336-1.468.708-2.179 1.112-3.3-12.488-12.373-21.243-23.334-21.243s-20.034 8.756-23.334 21.243a27.223 27.223 0 00-2.179-1.112c-6.473-2.936-13.531-2.918-19.366.049-11.63 5.912-15.462 21.8-8.54 35.418 3.617 7.116 9.467 12.213 15.886 14.626-2.122 4.082-3.303 8.575-3.303 13.292 0 18.618 18.319 33.765 40.835 33.765s40.835-15.146 40.835-33.765c0-4.701-1.171-9.179-3.279-13.249.53-.199 1.059-.41 1.582-.647 5.996-2.719 11.067-7.698 14.281-14.021 6.922-13.619 3.09-29.508-8.54-35.419zM256 371.333c4.566 0 9.673 7.161 9.673 16.744s-5.106 16.744-9.673 16.744c-4.566 0-9.673-7.161-9.673-16.744s5.107-16.744 9.673-16.744zm-38.082 18.552a5.886 5.886 0 012.693-.621c1.481 0 2.832.478 3.68.862 2.863 1.299 5.453 3.907 7.105 7.158 1.652 3.25 2.234 6.88 1.595 9.959-.301 1.452-1.165 4.071-3.561 5.289v.001c-4.187 2.129-10.358-1.26-13.478-7.398-3.12-6.139-2.219-13.122 1.966-15.25zM256 458.614c-14.004 0-25.835-8.593-25.835-18.765s11.831-18.765 25.835-18.765 25.835 8.593 25.835 18.765-11.831 18.765-25.835 18.765zm40.048-53.479c-1.652 3.25-4.242 5.859-7.105 7.157-1.353.613-3.978 1.458-6.373.241l-.001-.001c-2.396-1.218-3.26-3.837-3.561-5.289-.639-3.079-.058-6.709 1.595-9.959 1.652-3.251 4.242-5.859 7.105-7.158.849-.385 2.199-.861 3.68-.861.878 0 1.802.167 2.693.62 4.185 2.128 5.086 9.111 1.967 15.25z"/></svg>