<?xml version="1.0" encoding="UTF-8" standalone="no"?>
<!DOCTYPE svg PUBLIC "-//W3C//DTD SVG 1.1//EN" "http://www.w3.org/Graphics/SVG/1.1/DTD/svg11.dtd">
<svg version="1.1" xmlns="http://www.w3.org/2000/svg" xmlns:xlink="http://www.w3.org/1999/xlink" preserveAspectRatio="xMidYMid meet" viewBox="10 40 650 550" width="512" height="512"><defs><path d="M59.68 303.72C64.55 303.72 68.56 300 68.89 295.23C79.39 146.48 206.51 27.97 360.45 27.97C521.2 27.97 652.73 157.2 652.73 315.14C652.73 471.1 524.48 599.06 366.48 602.25C363.18 602.31 360.45 599.71 360.45 596.47C360.45 593.93 360.45 573.64 360.45 571.1C360.45 567.97 362.99 565.41 366.18 565.34C503.66 562.32 615.16 450.9 615.16 315.14C615.16 177.5 500.54 64.88 360.45 64.88C360.45 64.88 360.44 64.88 360.44 64.88C227.65 64.88 117.75 166.07 106.66 293.85C106.2 299.16 110.46 303.72 115.88 303.72C119.37 303.72 147.33 303.72 150.83 303.72C156.99 303.72 160.37 310.77 156.44 315.43C150.11 322.95 99.48 383.12 93.16 390.64C90.24 394.1 84.84 394.1 81.93 390.64C75.6 383.12 24.97 322.95 18.64 315.43C14.72 310.77 18.09 303.72 24.25 303.72C31.34 303.72 56.14 303.72 59.68 303.72Z" id="axQsHzRTY"></path><path d="M341.66 28.58C347.88 28.19 354.14 27.97 360.45 27.97C521.2 27.97 652.73 157.2 652.73 315.14C652.73 471.1 524.48 599.06 366.48 602.25C364.43 602.28 362.61 601.3 361.52 599.77C504.2 581.07 615.2 460.23 615.2 315.14C615.2 163.38 493.77 38.16 341.66 28.58Z" id="ahXY1uPlL"></path><path d="M118.92 315.44C122.85 310.77 119.47 303.72 113.31 303.72C109.81 303.72 81.85 303.72 78.35 303.72C72.93 303.72 68.68 299.16 69.14 293.85C80.22 166.07 190.12 64.88 322.93 64.88C329.22 64.88 335.46 65.11 341.65 65.56C217.41 74.58 117.22 172.16 106.67 293.85C106.2 299.16 110.46 303.72 115.88 303.72C119.37 303.72 147.34 303.72 150.83 303.72C156.99 303.72 160.37 310.77 156.45 315.44C150.12 322.96 99.49 383.12 93.16 390.64C90.25 394.11 84.85 394.11 81.93 390.64C81.06 389.6 76.67 384.39 68.78 375.02C95.52 343.24 112.23 323.38 118.92 315.44Z" id="bASkATdl7"></path><path d="M502.29 202.33C508.03 202.33 512.68 206.9 512.68 212.53C512.68 234.52 512.68 410.45 512.68 432.44C512.68 438.07 508.03 442.64 502.29 442.64C473.3 442.64 241.38 442.64 212.39 442.64C206.65 442.64 202 438.07 202 432.44C202 410.45 202 234.52 202 212.53C202 206.9 206.65 202.33 212.39 202.33C270.37 202.33 473.3 202.33 502.29 202.33Z" id="a2Bqdj4uJU"></path><path d="M475.15 212.53C475.15 206.89 470.51 202.33 464.77 202.33C468.52 202.33 498.54 202.33 502.29 202.33C508.03 202.33 512.68 206.9 512.68 212.53C512.68 234.52 512.68 410.45 512.68 432.44C512.68 438.07 508.03 442.64 502.29 442.64C498.54 442.64 468.52 442.64 464.77 442.64C470.51 442.64 475.15 438.07 475.15 432.44C475.15 388.45 475.15 234.52 475.15 212.53Z" id="ajfFVV40d"></path><path d="M512.68 426.35C512.68 430 512.68 432.03 512.68 432.44C512.68 438.07 508.03 442.64 502.29 442.64C497.13 442.64 471.31 442.64 424.84 442.64L379.56 377.66C406.1 341.77 420.85 321.83 423.8 317.85C426.78 313.57 433.2 313.57 436.19 317.85C446.39 332.31 471.88 368.48 512.68 426.35Z" id="b3GYOluUq0"></path><path d="M471.63 421.35C467.58 415.61 447.35 386.91 410.93 335.24C418.65 324.81 422.94 319.01 423.8 317.85C426.78 313.57 433.2 313.57 436.19 317.85C441.28 325.08 466.78 361.25 512.68 426.35C512.68 430 512.68 432.03 512.68 432.44C512.68 438.07 508.03 442.64 502.29 442.64C498.54 442.64 468.52 442.64 464.77 442.64C470.51 442.64 475.15 438.07 475.15 432.44C475.15 428.47 473.93 424.61 471.63 421.35Z" id="k2WXtonO7g"></path><path d="M379.78 287.21C395.44 287.21 408.13 274.74 408.13 259.35C408.13 243.96 395.44 231.49 379.78 231.49C364.12 231.49 351.42 243.96 351.42 259.35C351.42 274.74 364.12 287.21 379.78 287.21Z" id="aLgfnTtjh"></path><path d="M361.02 238.47C366.02 234.13 372.58 231.49 379.78 231.49C395.44 231.49 408.13 243.96 408.13 259.35C408.13 274.74 395.44 287.21 379.78 287.21C372.58 287.21 366.01 284.57 361.02 280.23C366.9 275.13 370.61 267.67 370.61 259.35C370.61 251.04 366.9 243.57 361.02 238.47Z" id="fjkz9MyuU"></path><path d="M289.87 263.06C292.85 258.78 299.27 258.78 302.26 263.06C310.6 275.04 352.31 334.9 427.4 442.64C298.39 442.64 226.73 442.64 212.39 442.64C206.65 442.64 202 438.07 202 432.44C202 429.56 202 415.17 202 389.28C248.86 321.96 278.15 279.89 289.87 263.06Z" id="b2UdpVYXx"></path><path d="M289.87 263.06C292.85 258.78 299.27 258.78 302.26 263.06C310.6 275.04 352.31 334.9 427.4 442.64L389.87 442.64L277.31 281.11C284.01 271.48 288.19 265.47 289.87 263.06Z" id="ctv0TWA7i"></path></defs><g><g><g><use xlink:href="#axQsHzRTY" opacity="1" fill="#8cc9f9" fill-opacity="1"></use><g><use xlink:href="#axQsHzRTY" opacity="1" fill-opacity="0" stroke="#000000" stroke-width="1" stroke-opacity="0"></use></g></g><g><use xlink:href="#ahXY1uPlL" opacity="1" fill="#60b8fe" fill-opacity="1"></use><g><use xlink:href="#ahXY1uPlL" opacity="1" fill-opacity="0" stroke="#000000" stroke-width="1" stroke-opacity="0"></use></g></g><g><use xlink:href="#bASkATdl7" opacity="1" fill="#60b8fe" fill-opacity="1"></use><g><use xlink:href="#bASkATdl7" opacity="1" fill-opacity="0" stroke="#000000" stroke-width="1" stroke-opacity="0"></use></g></g><g><use xlink:href="#a2Bqdj4uJU" opacity="1" fill="#23a8fe" fill-opacity="1"></use><g><use xlink:href="#a2Bqdj4uJU" opacity="1" fill-opacity="0" stroke="#000000" stroke-width="1" stroke-opacity="0"></use></g></g><g><use xlink:href="#ajfFVV40d" opacity="1" fill="#0193fa" fill-opacity="1"></use><g><use xlink:href="#ajfFVV40d" opacity="1" fill-opacity="0" stroke="#000000" stroke-width="1" stroke-opacity="0"></use></g></g><g><use xlink:href="#b3GYOluUq0" opacity="1" fill="#43cb8e" fill-opacity="1"></use><g><use xlink:href="#b3GYOluUq0" opacity="1" fill-opacity="0" stroke="#000000" stroke-width="1" stroke-opacity="0"></use></g></g><g><use xlink:href="#k2WXtonO7g" opacity="1" fill="#00ba66" fill-opacity="1"></use><g><use xlink:href="#k2WXtonO7g" opacity="1" fill-opacity="0" stroke="#000000" stroke-width="1" stroke-opacity="0"></use></g></g><g><use xlink:href="#aLgfnTtjh" opacity="1" fill="#fee55a" fill-opacity="1"></use><g><use xlink:href="#aLgfnTtjh" opacity="1" fill-opacity="0" stroke="#000000" stroke-width="1" stroke-opacity="0"></use></g></g><g><use xlink:href="#fjkz9MyuU" opacity="1" fill="#ffd301" fill-opacity="1"></use><g><use xlink:href="#fjkz9MyuU" opacity="1" fill-opacity="0" stroke="#000000" stroke-width="1" stroke-opacity="0"></use></g></g><g><use xlink:href="#b2UdpVYXx" opacity="1" fill="#43cb8e" fill-opacity="1"></use><g><use xlink:href="#b2UdpVYXx" opacity="1" fill-opacity="0" stroke="#000000" stroke-width="1" stroke-opacity="0"></use></g></g><g><use xlink:href="#ctv0TWA7i" opacity="1" fill="#00ba66" fill-opacity="1"></use><g><use xlink:href="#ctv0TWA7i" opacity="1" fill-opacity="0" stroke="#000000" stroke-width="1" stroke-opacity="0"></use></g></g></g></g></svg>