<svg height="512pt" viewBox="0 0 512 512" width="512pt" xmlns="http://www.w3.org/2000/svg"><path d="m330 165c0 12.597656-1.5 24.898438-4.199219 37.199219l-123.601562 123.601562c-12 2.699219-24.597657 4.199219-37.199219 4.199219-90.902344 0-165-74.101562-165-165 0-90.902344 74.097656-165 165-165s165 74.097656 165 165zm0 0" fill="#fdbf00"/><path d="m330 165c0 12.597656-1.5 24.898438-4.199219 37.199219l-123.601562 123.601562c-12 2.699219-24.597657 4.199219-37.199219 4.199219v-330c90.902344 0 165 74.097656 165 165zm0 0" fill="#ff9100"/><path d="m502.101562 290.601562c-31.199218-85.503906-125.703124-129.902343-211.5-98.703124-85.800781 31.203124-129.902343 126-98.699218 211.5 24.898437 68.699218 89.398437 108.601562 155.097656 108.601562 18.898438 0 38.101562-3.300781 56.398438-9.902344 84.859374-30.855468 129.777343-126.339844 98.703124-211.496094zm0 0" fill="#ffda2d"/><path d="m403.398438 502.097656c-18.296876 6.601563-37.5 9.902344-56.398438 9.902344-65.699219 0-130.199219-39.902344-155.097656-108.601562-31.203125-85.5 12.898437-180.296876 98.699218-211.5zm0 0" fill="#fdbf00"/><path d="m135 120h-30c-8.289062 0-15-6.710938-15-15s6.710938-15 15-15h30c8.289062 0 15 6.710938 15 15s-6.710938 15-15 15zm0 0" fill="#714c2f"/><path d="m225 120h-30c-8.289062 0-15-6.710938-15-15s6.710938-15 15-15h30c8.289062 0 15 6.710938 15 15s-6.710938 15-15 15zm0 0" fill="#523522"/><path d="m240 165c0 41.398438-33.601562 75-75 75s-75-33.601562-75-75c0-8.402344 6.597656-15 15-15s15 6.597656 15 15c0 24.898438 20.097656 45 45 45s45-20.101562 45-45c0-8.402344 6.597656-15 15-15s15 6.597656 15 15zm0 0" fill="#e63950"/><path d="m240 165c0 41.398438-33.601562 75-75 75v-30c24.902344 0 45-20.101562 45-45 0-8.402344 6.597656-15 15-15s15 6.597656 15 15zm0 0" fill="#ae2538"/><g fill="#ffda2d"><path d="m437 92c-3.839844 0-7.675781-1.464844-10.605469-4.394531-5.859375-5.859375-5.859375-15.351563 0-21.210938l30-30c5.859375-5.859375 15.351563-5.859375 21.210938 0s5.859375 15.351563 0 21.210938l-30 30c-2.929688 2.929687-6.765625 4.394531-10.605469 4.394531zm0 0"/><path d="m467 152h-60c-8.289062 0-15-6.710938-15-15s6.710938-15 15-15h60c8.289062 0 15 6.710938 15 15s-6.710938 15-15 15zm0 0"/><path d="m377 92c-8.289062 0-15-6.710938-15-15v-60c0-8.289062 6.710938-15 15-15s15 6.710938 15 15v60c0 8.289062-6.710938 15-15 15zm0 0"/></g><path d="m445.699219 311c-1.5-3.601562-4.199219-6.601562-7.796875-8.402344-3.601563-1.796875-7.800782-1.796875-11.398438-.597656l-84.601562 30.898438-84.601563 30.902343c-7.796875 2.699219-11.699219 11.398438-9 19.199219 9.601563 26.101562 28.800781 47.398438 54.300781 59.097656 14.097657 6.601563 29.398438 9.902344 44.398438 9.902344 12 0 24.300781-2.101562 36-6.300781 54.300781-19.800781 82.5-80.097657 62.699219-134.699219zm0 0" fill="#ff637b"/><path d="m270.097656 326.140625c-6.125 0-11.882812-3.777344-14.09375-9.871094-2.84375-7.792969 1.1875-16.40625 8.964844-19.21875l28.199219-10.253906c7.808593-2.816406 16.390625 1.171875 19.21875 8.964844 2.839843 7.792969-1.1875 16.402343-8.964844 19.21875l-28.199219 10.253906c-1.699218.613281-3.425781.90625-5.125.90625zm0 0" fill="#714c2f"/><path d="m354.675781 295.351562c-6.121093 0-11.878906-3.78125-14.089843-9.875-2.84375-7.792968 1.171874-16.375 8.964843-19.21875l28.183594-10.253906c7.734375-2.84375 16.390625 1.171875 19.21875 8.964844 2.839844 7.792969-1.171875 16.378906-8.964844 19.21875l-28.183593 10.253906c-1.6875.617188-3.429688.910156-5.128907.910156zm0 0" fill="#895d3c"/><path d="m383 445.699219c-11.699219 4.199219-24 6.300781-36 6.300781-15 0-30.300781-3.300781-44.398438-9.902344-25.5-11.699218-44.699218-32.996094-54.300781-59.097656-2.699219-7.800781 1.199219-16.5 9-19.199219l84.601563-30.902343zm0 0" fill="#e63950"/></svg>